<?xml version="1.0" encoding="utf-8"?>
<!-- Generator: Adobe Illustrator 19.1.0, SVG Export Plug-In . SVG Version: 6.00 Build 0)  -->
<!DOCTYPE svg PUBLIC "-//W3C//DTD SVG 1.1//EN" "http://www.w3.org/Graphics/SVG/1.1/DTD/svg11.dtd">
<svg version="1.1" id="Layer_1" xmlns="http://www.w3.org/2000/svg" xmlns:xlink="http://www.w3.org/1999/xlink" x="0px" y="0px"
	 width="90.7px" height="90.7px" viewBox="0 0 90.7 90.7" style="enable-background:new 0 0 90.7 90.7;" xml:space="preserve">
<style type="text/css">
	.st0{fill:#E5E4DA;}
</style>
<g>
	<path class="st0" d="M56.3,50.3l-1.5-2.9c-0.2-0.4-0.7-0.7-1.2-0.7H31c-1,0-1.7-1.1-1.2-2l16.6-32.5c0.5-0.9-0.2-2-1.2-2h-3.6
		c-0.5,0-1,0.3-1.2,0.7L8.4,73.4c-0.5,0.9,0.2,2,1.2,2h3.6c0.5,0,1-0.3,1.2-0.7l11.1-21.6c0.2-0.5,0.7-0.7,1.2-0.7h28.4
		C56.1,52.3,56.8,51.2,56.3,50.3z"/>
	<path class="st0" d="M49.6,17.9l-1.8,3.7c-0.2,0.4-0.2,0.8,0,1.2L71.1,68c0.5,0.9-0.2,2-1.2,2l-45.6,0.1c-0.5,0-1,0.3-1.2,0.8
		l-1.3,2.7c-0.4,0.9,0.2,1.9,1.2,1.9h52h3.6h0.9c1,0,1.7-1.1,1.2-2L52,17.9C51.5,16.9,50.1,16.9,49.6,17.9z"/>
</g>
<g>
</g>
<g>
</g>
<g>
</g>
<g>
</g>
<g>
</g>
<g>
</g>
</svg>
