<?xml version="1.0" encoding="utf-8"?>
<!-- Generator: Adobe Illustrator 19.1.0, SVG Export Plug-In . SVG Version: 6.00 Build 0)  -->
<!DOCTYPE svg PUBLIC "-//W3C//DTD SVG 1.1//EN" "http://www.w3.org/Graphics/SVG/1.1/DTD/svg11.dtd">
<svg version="1.1" id="Layer_1" xmlns="http://www.w3.org/2000/svg" xmlns:xlink="http://www.w3.org/1999/xlink" x="0px" y="0px"
	 width="150.1px" height="150.1px" viewBox="0 0 150.1 150.1" style="enable-background:new 0 0 150.1 150.1;" xml:space="preserve"
	>
<style type="text/css">
	.st0{fill:#231F20;}
</style>
<g>
	<path class="st0" d="M86.8,82.4l-1.5-2.9c-0.2-0.4-0.7-0.7-1.2-0.7H61.5c-1,0-1.7-1.1-1.2-2l16.6-32.5c0.5-0.9-0.2-2-1.2-2h-3.6
		c-0.5,0-1,0.3-1.2,0.7L39,105.5c-0.5,0.9,0.2,2,1.2,2h3.6c0.5,0,1-0.3,1.2-0.7l11.1-21.6c0.2-0.5,0.7-0.7,1.2-0.7h28.4
		C86.7,84.4,87.3,83.3,86.8,82.4z"/>
	<path class="st0" d="M80.1,50l-1.8,3.7c-0.2,0.4-0.2,0.8,0,1.2l23.2,45.3c0.5,0.9-0.2,2-1.2,2l-45.6,0.1c-0.5,0-1,0.3-1.2,0.8
		l-1.3,2.7c-0.4,0.9,0.2,1.9,1.2,1.9h52h3.6h0.9c1,0,1.7-1.1,1.2-2L82.5,49.9C82,49,80.6,49,80.1,50z"/>
</g>
<g>
</g>
<g>
</g>
<g>
</g>
<g>
</g>
<g>
</g>
<g>
</g>
</svg>
